<svg width="39" height="39" viewBox="0 0 39 39" fill="none" xmlns="http://www.w3.org/2000/svg">
<path d="M39 19.5C39 30.2696 30.2696 39 19.5 39C8.73045 39 0 30.2696 0 19.5C0 8.73045 8.73045 0 19.5 0C30.2696 0 39 8.73045 39 19.5Z" fill="#042442"/>
<path fill-rule="evenodd" clip-rule="evenodd" d="M10.05 12.75C10.05 12.0044 10.6544 11.4 11.4 11.4H27.6C28.3456 11.4 28.95 12.0044 28.95 12.75C28.95 13.4956 28.3456 14.1 27.6 14.1H11.4C10.6544 14.1 10.05 13.4956 10.05 12.75Z" fill="white"/>
<path fill-rule="evenodd" clip-rule="evenodd" d="M10.05 19.5C10.05 18.7544 10.6544 18.15 11.4 18.15H27.6C28.3456 18.15 28.95 18.7544 28.95 19.5C28.95 20.2456 28.3456 20.85 27.6 20.85H11.4C10.6544 20.85 10.05 20.2456 10.05 19.5Z" fill="white"/>
<path fill-rule="evenodd" clip-rule="evenodd" d="M18.15 26.25C18.15 25.5044 18.7544 24.9 19.5 24.9H27.6C28.3456 24.9 28.95 25.5044 28.95 26.25C28.95 26.9956 28.3456 27.6 27.6 27.6H19.5C18.7544 27.6 18.15 26.9956 18.15 26.25Z" fill="white"/>
</svg>
